<svg width="34" height="34" viewBox="0 0 34 34" fill="none" xmlns="http://www.w3.org/2000/svg">
<path d="M18.1172 1.61487C17.1258 1.63559 16.4132 1.83042 15.9413 2.17574L9.48938 5.63856L5.8964 10.5203C5.14117 11.6862 5.67892 13.9453 8.04259 12.4975L10.6258 9.08743C13.9113 6.25115 20.6189 7.55796 17.4381 13.2439C15.8756 16.5364 16.6109 18.144 18.6175 18.8187L19.5347 15.7387C21.1252 12.1644 24.0837 11.5212 23.963 8.63952L31.0885 9.15251L31.031 1.71202L18.1172 1.61487ZM14.5253 8.47716C13.3692 8.45724 12.2353 8.93523 11.4095 9.63097L8.81675 13.0396C9.52816 13.6045 10.2387 13.3025 10.9501 12.6171C11.7885 13.0417 12.4352 12.3832 12.9665 11.07C13.1867 10.1742 13.5117 9.54019 14.5254 8.47716H14.5253ZM12.3593 14.3424C12.2392 14.3462 12.121 14.3741 12.0119 14.4244L3.43459 18.3763C2.98409 18.5841 2.78627 19.1202 2.99412 19.5711L8.65658 31.8615C8.86456 32.312 9.40066 32.5109 9.85189 32.3021L18.4283 28.3507C18.8796 28.1424 19.0775 27.6071 18.8697 27.1554L13.2062 14.8657C13.0506 14.5272 12.71 14.3316 12.3593 14.3424H12.3593ZM10.3826 17.6667C10.9002 17.6742 11.3729 17.8031 11.7833 18.055C12.4977 18.4935 13.0204 19.4449 13.0877 20.4293C13.1341 21.1056 12.974 21.6138 12.2541 23.0771C11.9965 23.6007 11.88 24.0911 11.9173 24.4952C11.9479 24.8254 11.9695 24.884 12.159 25.1489L12.3672 25.4398L12.2507 25.5048C12.1866 25.5406 11.7794 25.7107 11.3458 25.8829C10.8864 26.0653 10.5279 26.1815 10.4869 26.1613C10.4482 26.1423 10.3307 25.9874 10.2258 25.8168C9.72612 25.0049 9.74604 23.9887 10.2841 22.8533C10.7261 21.921 10.8466 21.5274 10.8122 21.1285C10.7581 20.5016 10.3644 20.0342 9.82712 19.9586C9.42729 19.9023 9.1187 19.9953 8.57125 20.3373C8.02021 20.6815 7.64548 21.0484 7.30588 21.5762C7.18634 21.7619 7.07963 21.9117 7.06881 21.9091C7.05792 21.9065 6.85591 21.4273 6.62003 20.8442L6.19105 19.7839L6.40554 19.5404C6.79129 19.1023 7.18634 18.7989 7.88149 18.4072C8.77399 17.9043 9.62618 17.6558 10.3826 17.6667ZM12.5945 26.5019C13.0237 26.5102 13.4033 26.7154 13.637 27.0971C13.9223 27.563 13.915 28.0161 13.6149 28.4752C13.423 28.7687 13.0203 29.0272 12.6161 29.1163C11.6113 29.3378 10.7542 28.4959 11.0406 27.5686C11.1612 27.1778 11.3942 26.9087 11.7892 26.7039C12.0617 26.5628 12.337 26.497 12.5945 26.5019Z" fill="#337AF7"/>
</svg>

